<svg id="Layer_1" data-name="Layer 1" xmlns="http://www.w3.org/2000/svg" viewBox="0 0 2323 2323"><defs><style>.cls-1{fill:#fc2438;}.cls-2{fill:#2f4858;}.cls-3{fill:#304858;}</style></defs><title>LOGO_CHERRYBIT</title><path class="cls-1" d="M1454.57,1006.81c-5.81,148.36,138-268.27,138.3-428.07a732.81,732.81,0,0,0-177-480.06c-125.15,178.57-327.57,299-558.63,312.65C857.19,411.33,1483,283,1454.57,1006.81Z"/><path class="cls-2" d="M1447.46,71.55a41.68,41.68,0,0,0-65.77,3.21C1273.31,229.38,1110.6,331.34,927.58,361.58c-45.24,2.29-75.16,8.18-78.77,8.92a41.68,41.68,0,0,0,10.84,82.44q38-2.25,75.25-8.09c82.11-3.65,221.15,6.27,327.21,96.31,108.53,92.13,159.28,248.25,150.81,464-.71,18.14-2,51.89,24.37,68.1a44.76,44.76,0,0,0,23.45,6.66,46.67,46.67,0,0,0,22.79-6c10.86-6.07,39.7-22.17,95.78-210.55,12.92-43.38,55.08-192.11,55.25-284.52A777.32,777.32,0,0,0,1447.46,71.55Zm45.28,790.24c-16-169.16-75.17-298-176.67-384.19-55.85-47.4-118.17-76.41-178.66-93.67a774.21,774.21,0,0,0,279.27-217.18,694.06,694.06,0,0,1,134.51,411.91C1551.06,649.08,1522.31,767.07,1492.74,861.79Z"/><path class="cls-2" d="M1186.68,1635.33a141,141,0,0,1-54.57,2.87,41.68,41.68,0,1,0-11.86,82.51,224.17,224.17,0,0,0,29.43,2.27h2.41a225.73,225.73,0,0,0,54.84-6.79,41.68,41.68,0,1,0-20.25-80.87Z"/><path class="cls-2" d="M1808.43,1403.69a41.7,41.7,0,0,0-50.56-30.31q-50.89,12.73-102.51,21a496.78,496.78,0,0,0-22.19-137.68,494,494,0,0,0-471.26-347.28c-116.64,0-232.06,41.16-323.17,119.93a495.09,495.09,0,0,0-171.13,365q-51.54-8.28-102.48-21a41.68,41.68,0,1,0-20.24,80.87,1301.8,1301.8,0,0,0,128.59,25.36,494,494,0,0,0,487.62,417.76c152.13,0,302.18-70,398.94-202.18a491.66,491.66,0,0,0,89.57-215.59,1300,1300,0,0,0,128.5-25.35A41.68,41.68,0,0,0,1808.43,1403.69Zm-315.65,242.25a405.8,405.8,0,0,1-148.48,125.21A414.48,414.48,0,0,1,1161.1,1814,410.21,410.21,0,0,1,760.23,1489.3q49.07,3.78,98.22,3.79c4.6,0,9.21,0,13.8-.08a1286,1286,0,0,0,168-12.93,41.68,41.68,0,1,0-11.83-82.52,1202.85,1202.85,0,0,1-157.1,12.09q-60.15.61-120.26-4.82a408.42,408.42,0,0,1,79.13-244,409.52,409.52,0,0,1,331.69-168.06,410.69,410.69,0,0,1,391.64,288.61A414.93,414.93,0,0,1,1572,1404.83a1198.5,1198.5,0,0,1-120.37,4.82,1202.85,1202.85,0,0,1-157.1-12.09,41.68,41.68,0,1,0-11.83,82.52,1286,1286,0,0,0,168,12.93c4.6,0,9.19.08,13.8.08q49.28,0,98.55-3.82A406.1,406.1,0,0,1,1492.78,1645.94Z"/><path class="cls-1" d="M1503.56,1088.7a41.54,41.54,0,0,1-29.47-12.21c-35.75-35.76-81.24-61.74-81.7-62a41.68,41.68,0,0,1,41-72.58c2.25,1.27,55.6,31.6,99.63,75.63a41.69,41.69,0,0,1-29.48,71.16Z"/><path class="cls-1" d="M1473.06,2205.25q-10.69-7-15.86-20.27h-1.12l-1.54,23.77h-19.72V2005.46h22.38v85.84h1.11a42,42,0,0,1,16.08-19q10.62-6.7,25.44-6.71,17.34,0,29.86,9t19.08,25.45q6.57,16.48,6.57,38.86,0,22.65-6.57,39.15t-19.08,25.38q-12.53,8.87-30.13,8.88Q1483.75,2212.25,1473.06,2205.25Zm49.64-27.33q9.43-13.64,9.44-39.08t-9.44-39.08q-9.43-13.62-26.92-13.62a35.27,35.27,0,0,0-20.34,5.93q-8.75,6-13.49,17.06t-4.75,26.36v6.85q0,15.24,4.75,26.36t13.49,17a35.61,35.61,0,0,0,20.34,5.87Q1513.26,2191.55,1522.7,2177.92Z"/><path class="cls-1" d="M1563.94,2189H1612V2088.79h-48.1v-19.71h70.47v120h48.1v19.71H1563.94Zm42.37-153.66a20.1,20.1,0,1,1,13.84,5.59A18.79,18.79,0,0,1,1606.31,2035.38Z"/><path class="cls-1" d="M1726.2,2199.8q-12.43-12.43-12.44-35.37v-75.64H1678v-19.71h36.91l3.49-49.36h17.76v49.36h63.2v19.71h-63.2v72.7q0,30.06,25.73,30.06,26,0,26-30.06v-10.34h21.81v13.28q0,22.93-12.44,35.37t-35.65,12.45Q1738.65,2212.25,1726.2,2199.8Z"/><path class="cls-3" d="M657.6,2178.52a7.68,7.68,0,0,1-1.43,4.57,58.38,58.38,0,0,1-23.68,19.11,78.3,78.3,0,0,1-32.52,6.56,79.33,79.33,0,0,1-29.11-5.13,65.08,65.08,0,0,1-22.54-14.55,66.58,66.58,0,0,1-14.69-22.54,77.33,77.33,0,0,1-5.28-29.11,76.53,76.53,0,0,1,5.28-28.81,65.26,65.26,0,0,1,37.23-37.24,77.52,77.52,0,0,1,29.11-5.27q32.81,0,53.35,22.25a8.36,8.36,0,0,1,2,5.13,6.39,6.39,0,0,1-6.84,6.86,7.91,7.91,0,0,1-5.71-2.57,53,53,0,0,0-18.54-13.27A60.32,60.32,0,0,0,600,2079.8a62.65,62.65,0,0,0-23.26,4.14,50.14,50.14,0,0,0-17.83,11.84A54.94,54.94,0,0,0,547.32,2114a68.33,68.33,0,0,0,0,46.79,54.83,54.83,0,0,0,11.56,18.26,49.87,49.87,0,0,0,17.83,11.84,62.44,62.44,0,0,0,23.26,4.14q28.8,0,45.07-21.12a6.46,6.46,0,0,1,2-1.71,7.13,7.13,0,0,1,3.71-.85,6.46,6.46,0,0,1,5,2A7.22,7.22,0,0,1,657.6,2178.52Z"/><path class="cls-3" d="M600,2212.93a83.67,83.67,0,0,1-30.63-5.42,69.31,69.31,0,0,1-24-15.49,71.09,71.09,0,0,1-15.61-23.93,86.23,86.23,0,0,1,0-61,69.36,69.36,0,0,1,39.55-39.54,81.82,81.82,0,0,1,30.66-5.58c23,0,42,7.94,56.41,23.59a12.7,12.7,0,0,1,3.1,8,10.52,10.52,0,0,1-11,11,12,12,0,0,1-8.65-3.78,49.63,49.63,0,0,0-17.26-12.4A56.6,56.6,0,0,0,600,2084a58.76,58.76,0,0,0-21.72,3.84,46.32,46.32,0,0,0-16.37,10.86,50.75,50.75,0,0,0-10.67,16.89,64.15,64.15,0,0,0,0,43.75,51,51,0,0,0,10.68,16.89,46,46,0,0,0,16.37,10.85A58.48,58.48,0,0,0,600,2190.9c18,0,31.67-6.37,41.77-19.49a9.79,9.79,0,0,1,3.16-2.74,11.23,11.23,0,0,1,5.85-1.45,10.69,10.69,0,0,1,8,3.32,11.48,11.48,0,0,1,3,8,11.81,11.81,0,0,1-2.21,7A62.75,62.75,0,0,1,634.2,2206,82.72,82.72,0,0,1,600,2212.93Zm0-142.65a73.57,73.57,0,0,0-27.55,5,61.1,61.1,0,0,0-34.92,34.92,72.62,72.62,0,0,0-5,27.26,73.37,73.37,0,0,0,5,27.55,62.67,62.67,0,0,0,13.77,21.15,60.81,60.81,0,0,0,21.11,13.61,75.33,75.33,0,0,0,27.59,4.85,74.53,74.53,0,0,0,30.81-6.19,54.57,54.57,0,0,0,22-17.77,3.49,3.49,0,0,0,.63-2.11,3.07,3.07,0,0,0-.74-2.3,2.34,2.34,0,0,0-1.94-.67,3.18,3.18,0,0,0-1.56.26,3.57,3.57,0,0,0-.73.53c-11.73,15.25-28,22.9-48.49,22.9a66.76,66.76,0,0,1-24.8-4.44A54.18,54.18,0,0,1,555.88,2182a59.22,59.22,0,0,1-12.44-19.63,72.43,72.43,0,0,1,0-49.83,59.12,59.12,0,0,1,12.44-19.63,54.42,54.42,0,0,1,19.29-12.83,67.08,67.08,0,0,1,24.8-4.43,64.63,64.63,0,0,1,25.91,5.06,57.51,57.51,0,0,1,20,14.3,3.53,3.53,0,0,0,2.61,1.19c1.41,0,1.87-.46,2-.64s.64-.63.64-2.05a4.42,4.42,0,0,0-1.12-2.57C637.26,2077.12,620.81,2070.28,600,2070.28Z"/><path class="cls-3" d="M757.17,2066.11q29.39,0,44.51,16.26t15.12,47.36v69.33q0,8-7.56,8c-4.86,0-7.27-2.66-7.27-8v-68.19q0-51.06-47.8-51.07-23.89,0-37.84,15.41t-13.94,41.65v62.2q0,8-7.57,8-7.27,0-7.27-8V2011.9q0-8,7.27-8,7.57,0,7.57,8v82.45H703a52,52,0,0,1,21.54-21Q738.35,2066.11,757.17,2066.11Z"/><path class="cls-3" d="M809.24,2211.22c-7.17,0-11.44-4.54-11.44-12.16v-68.19c0-31.56-14.27-46.9-43.63-46.9-14.84,0-26.2,4.59-34.75,14s-12.86,22.5-12.86,38.85v62.2c0,7.62-4.39,12.16-11.74,12.16-7.16,0-11.44-4.54-11.44-12.16V2011.9c0-7.62,4.28-12.16,11.44-12.16,7.35,0,11.74,4.54,11.74,12.16v70.24a56.46,56.46,0,0,1,16-12.45c9.79-5.14,21.43-7.75,34.61-7.75,20.7,0,36.7,5.92,47.56,17.59S821,2108,821,2129.73v69.33C821,2206.68,816.58,2211.22,809.24,2211.22Zm-55.07-135.59c34,0,52,19.1,52,55.24v68.19c0,3.65,1.12,3.82,3.11,3.82,2.3,0,3.39-.37,3.39-3.82v-69.33c0-19.55-4.71-34.53-14-44.52s-23.17-14.93-41.46-14.93c-11.81,0-22.15,2.28-30.73,6.79a48.19,48.19,0,0,0-19.85,19.33l-1.19,2.12h-7.18V2011.9c0-3.45-1.09-3.82-3.4-3.82-1.92,0-3.1.18-3.1,3.82v187.16c0,3.64,1.18,3.82,3.1,3.82,2.31,0,3.4-.37,3.4-3.82v-62.2c0-18.48,5.06-33.44,15-44.45S737.08,2075.63,754.17,2075.63Z"/><path class="cls-3" d="M986.56,2134a8.19,8.19,0,0,1-2.43,6.28,9,9,0,0,1-6.41,2.28H860.17a62,62,0,0,0,5.28,21.4,51,51,0,0,0,11.83,16.55,53.22,53.22,0,0,0,17.84,10.7,65.92,65.92,0,0,0,23,3.85q15.12,0,26.83-5.71a55.42,55.42,0,0,0,19.4-15.41,7.16,7.16,0,0,1,11-.56,8.29,8.29,0,0,1,1.86,5.42,8.07,8.07,0,0,1-2,4.85,65.3,65.3,0,0,1-24,18.4q-14.55,6.69-33.1,6.7a83.55,83.55,0,0,1-29.81-5.13,64.06,64.06,0,0,1-37.94-37.09,77.13,77.13,0,0,1-5.28-29.11,76.34,76.34,0,0,1,5.28-28.81,65.26,65.26,0,0,1,37.23-37.24,77.43,77.43,0,0,1,29.1-5.27,75.5,75.5,0,0,1,28.25,5.13A67.31,67.31,0,0,1,967,2085.37a62.81,62.81,0,0,1,14.4,21.4A70.42,70.42,0,0,1,986.56,2134Zm-69.9-54.21a62,62,0,0,0-21.4,3.55,53,53,0,0,0-17,9.93,52.27,52.27,0,0,0-12,15.46,55.66,55.66,0,0,0-5.85,20.14H972.58a62.18,62.18,0,0,0-6-20.14,50.4,50.4,0,0,0-11.84-15.46,53.1,53.1,0,0,0-17-9.93A61.17,61.17,0,0,0,916.66,2079.8Z"/><path class="cls-3" d="M918.08,2212.93a87.93,87.93,0,0,1-31.29-5.41,68.16,68.16,0,0,1-40.33-39.43,86.23,86.23,0,0,1,0-61A69.38,69.38,0,0,1,886,2067.52a81.86,81.86,0,0,1,30.66-5.58,79.94,79.94,0,0,1,29.79,5.43,71.69,71.69,0,0,1,23.47,15,67.61,67.61,0,0,1,15.36,22.8,75.23,75.23,0,0,1,5.45,28.84,12.3,12.3,0,0,1-3.74,9.32,13,13,0,0,1-9.27,3.41H864.8a56.23,56.23,0,0,0,4.44,15.5,46.88,46.88,0,0,0,10.87,15.21,49.21,49.21,0,0,0,16.45,9.86,62,62,0,0,0,21.52,3.59,56.7,56.7,0,0,0,25-5.28,51.5,51.5,0,0,0,18-14.26,10.88,10.88,0,0,1,8.69-4.43c4.7,0,7.38,2.08,8.79,3.83a12.36,12.36,0,0,1,2.79,8,12.1,12.1,0,0,1-2.87,7.41,69.7,69.7,0,0,1-25.51,19.62C942.71,2210.55,931,2212.93,918.08,2212.93Zm-1.42-142.65a73.52,73.52,0,0,0-27.54,5,61.08,61.08,0,0,0-34.93,34.92,72.82,72.82,0,0,0-5,27.26,73.57,73.57,0,0,0,5,27.55,59.88,59.88,0,0,0,35.56,34.75,79.61,79.61,0,0,0,28.33,4.86c11.7,0,22.25-2.12,31.36-6.32A61.36,61.36,0,0,0,971.9,2181a4,4,0,0,0,1.08-2.23,4.27,4.27,0,0,0-.92-2.8c-.17-.2-.61-.74-2.33-.74a2.64,2.64,0,0,0-2.17,1.29,59.64,59.64,0,0,1-20.83,16.55c-8.33,4.07-18,6.13-28.65,6.13a70.21,70.21,0,0,1-24.41-4.11,57.45,57.45,0,0,1-19.21-11.55,55.34,55.34,0,0,1-12.81-17.88,66.34,66.34,0,0,1-5.64-22.83l-.33-4.47h122a4.72,4.72,0,0,0,3.55-1.14,4,4,0,0,0,1.12-3.25,66.73,66.73,0,0,0-4.82-25.65,59.06,59.06,0,0,0-13.45-20,63.6,63.6,0,0,0-20.76-13.25A71.6,71.6,0,0,0,916.66,2070.28Zm60.67,62.77H855.83l.48-4.6a60,60,0,0,1,6.29-21.63,56.92,56.92,0,0,1,12.94-16.68,57.57,57.57,0,0,1,18.29-10.71,66.4,66.4,0,0,1,22.83-3.8,65.65,65.65,0,0,1,22.55,3.8,57.68,57.68,0,0,1,18.29,10.71,55,55,0,0,1,12.81,16.72,66.93,66.93,0,0,1,6.41,21.48Zm-112.07-8.34H967.67a56.87,56.87,0,0,0-4.8-14.1,46.7,46.7,0,0,0-10.87-14.2,49.22,49.22,0,0,0-15.66-9.14,57.12,57.12,0,0,0-19.68-3.3,58.22,58.22,0,0,0-20,3.29,49.43,49.43,0,0,0-15.66,9.15,48.68,48.68,0,0,0-11,14.24A50.46,50.46,0,0,0,865.26,2124.71Z"/><path class="cls-3" d="M1083.85,2067q7.41,0,7.42,7.13t-7.42,7.14q-25.68,0-39.38,16.26t-13.69,48.22v53.35q0,8-7.57,8-7.28,0-7.27-8v-123q0-8.27,7.27-8.27,7.57,0,7.57,8.27v22h.57Q1045.33,2067,1083.85,2067Z"/><path class="cls-3" d="M1023.21,2211.22c-7.16,0-11.44-4.54-11.44-12.16v-123c0-7.79,4.28-12.44,11.44-12.44,7.35,0,11.74,4.65,11.74,12.44v7.79c10.85-14,27.24-21.09,48.9-21.09,7.25,0,11.58,4.23,11.58,11.3s-4.33,11.31-11.58,11.31c-16,0-27.81,4.83-36.19,14.78s-12.71,25.33-12.71,45.53v53.35C1035,2206.68,1030.56,2211.22,1023.21,2211.22Zm0-139.23c-1.66,0-3.1,0-3.1,4.1v123c0,3.64,1.18,3.82,3.1,3.82,2.31,0,3.4-.37,3.4-3.82v-53.35c0-22.22,4.94-39.34,14.68-50.9,9.91-11.78,24.23-17.75,42.56-17.75,3,0,3.25-.81,3.25-3s-.28-3-3.25-3c-24.11,0-40,9.37-48.7,28.64l-1.1,2.46h-7.44v-26.14C1026.61,2072.26,1025.33,2072,1023.21,2072Z"/><path class="cls-3" d="M1182.28,2067q7.41,0,7.42,7.13t-7.42,7.14q-25.68,0-39.37,16.26t-13.7,48.22v53.35q0,8-7.57,8-7.26,0-7.27-8v-123q0-8.27,7.27-8.27,7.58,0,7.57,8.27v22h.57Q1143.76,2067,1182.28,2067Z"/><path class="cls-3" d="M1121.64,2211.22c-7.16,0-11.43-4.54-11.43-12.16v-123c0-7.79,4.27-12.44,11.43-12.44,7.35,0,11.74,4.65,11.74,12.44v7.79c10.85-14,27.24-21.09,48.9-21.09,7.25,0,11.59,4.23,11.59,11.3s-4.34,11.31-11.59,11.31c-16,0-27.81,4.83-36.19,14.78s-12.71,25.33-12.71,45.53v53.35C1133.38,2206.68,1129,2211.22,1121.64,2211.22Zm0-139.23c-1.66,0-3.1,0-3.1,4.1v123c0,3.64,1.18,3.82,3.1,3.82,2.31,0,3.4-.37,3.4-3.82v-53.35c0-22.22,4.94-39.34,14.68-50.9,9.91-11.78,24.23-17.75,42.56-17.75,3,0,3.25-.81,3.25-3s-.28-3-3.25-3c-24.11,0-40,9.37-48.7,28.64l-1.1,2.46H1125v-26.14C1125,2072.26,1123.76,2072,1121.64,2072Z"/><path class="cls-3" d="M1329.93,2067.82q7.26,0,7.27,8.27v119.26q0,31.09-17.83,48.79t-48.93,17.69a93.45,93.45,0,0,1-33.53-5.71,50,50,0,0,1-23.54-17.68,7.7,7.7,0,0,1-1.42-4.57q0-7.12,7.13-7.13a6.6,6.6,0,0,1,4.85,2q10,10.56,20.77,15t25.32,4.43q24.46,0,38.4-14t13.94-38.52v-16.83h-.57a53.15,53.15,0,0,1-21.4,21.11q-13.7,7.42-32.24,7.42-28.82,0-43.93-16.27t-15.13-47.36v-67.62q0-8.27,7.57-8.27,7.27,0,7.27,8.27v66.48q0,25.39,12.09,38.23t35.14,12.84a53.34,53.34,0,0,0,21-4,45.2,45.2,0,0,0,16.07-11.42,52.07,52.07,0,0,0,10.38-18,71.15,71.15,0,0,0,3.7-23.68v-60.49Q1322.36,2067.82,1329.93,2067.82Z"/><path class="cls-3" d="M1270.44,2266a98.12,98.12,0,0,1-35-6,54.28,54.28,0,0,1-25.45-19.16,11.8,11.8,0,0,1-2.2-7c0-7.07,4.22-11.3,11.3-11.3a10.8,10.8,0,0,1,7.79,3.21c6.28,6.66,12.78,11.36,19.41,14.08s14.66,4.11,23.74,4.11c15.08,0,27-4.29,35.45-12.76s12.73-20.44,12.73-35.57v-4.58a57.28,57.28,0,0,1-15.82,12.52c-9.7,5.26-21.21,7.93-34.23,7.93-20.32,0-36.13-5.92-47-17.6s-16.23-28.47-16.23-50.2v-67.62c0-7.79,4.38-12.44,11.73-12.44,7.16,0,11.44,4.65,11.44,12.44v66.48c0,15.75,3.69,27.65,11,35.37s18,11.53,32.1,11.53a49.25,49.25,0,0,0,19.41-3.66,41.1,41.1,0,0,0,14.61-10.37,48.46,48.46,0,0,0,9.55-16.56,67.39,67.39,0,0,0,3.47-22.3v-60.49c0-7.79,4.38-12.44,11.73-12.44,7.16,0,11.44,4.65,11.44,12.44v119.26c0,21.79-6.41,39.2-19.07,51.75S1292.21,2266,1270.44,2266Zm-51.36-35.09c-2.47,0-3,.5-3,3a3.51,3.51,0,0,0,.65,2.15,46.1,46.1,0,0,0,21.63,16.21,89.8,89.8,0,0,0,32,5.43c19.49,0,35-5.54,46-16.48s16.6-26.35,16.6-45.83V2076.09c0-4.1-1.44-4.1-3.1-4.1-2.11,0-3.4.27-3.4,4.1v60.49a75.73,75.73,0,0,1-3.93,25.06,56.64,56.64,0,0,1-11.23,19.39,49.37,49.37,0,0,1-17.53,12.45,57.6,57.6,0,0,1-22.68,4.33c-16.49,0-29.33-4.76-38.17-14.15s-13.23-23.14-13.23-41.09v-66.48c0-4.1-1.43-4.1-3.1-4.1-2.11,0-3.4.27-3.4,4.1v67.62c0,19.55,4.72,34.53,14,44.52s23,14.94,40.88,14.94c11.61,0,21.79-2.33,30.26-6.92a49.25,49.25,0,0,0,19.75-19.49l1.2-2.12h7.17v21c0,17.42-5.1,31.37-15.16,41.46s-24,15.21-41.35,15.21c-10.17,0-19.22-1.6-26.9-4.74s-15.21-8.54-22.22-16A2.4,2.4,0,0,0,1219.08,2230.91Z"/></svg>